<svg width="371" height="186" viewBox="0 0 371 186" fill="none" xmlns="http://www.w3.org/2000/svg">
<path d="M26.464 174V173.536C26.8907 173.333 27.328 173.205 27.776 173.152V163.664C27.5627 163.621 27.344 163.568 27.12 163.504C26.896 163.429 26.6773 163.349 26.464 163.264V162.8H28.16C28.3627 162.8 28.5547 162.795 28.736 162.784C28.928 162.773 29.1253 162.763 29.328 162.752C29.5307 162.741 29.7493 162.731 29.984 162.72C30.2187 162.709 30.4853 162.704 30.784 162.704C31.2107 162.704 31.6427 162.741 32.08 162.816C32.528 162.88 32.928 163.008 33.28 163.2C33.6427 163.392 33.936 163.664 34.16 164.016C34.384 164.357 34.496 164.805 34.496 165.36C34.496 165.637 34.4533 165.915 34.368 166.192C34.2827 166.469 34.1493 166.731 33.968 166.976C33.7973 167.211 33.5787 167.419 33.312 167.6C33.0453 167.781 32.7307 167.915 32.368 168V168.064C32.688 168.117 33.0027 168.208 33.312 168.336C33.632 168.464 33.9147 168.64 34.16 168.864C34.4053 169.077 34.6027 169.344 34.752 169.664C34.912 169.984 34.992 170.368 34.992 170.816C34.992 171.392 34.864 171.888 34.608 172.304C34.352 172.72 34.016 173.061 33.6 173.328C33.1947 173.595 32.7307 173.792 32.208 173.92C31.6853 174.037 31.1573 174.096 30.624 174.096C30.2507 174.096 29.8293 174.08 29.36 174.048C28.8907 174.016 28.4373 174 28 174H26.464ZM30.736 173.264C31.12 173.264 31.4773 173.205 31.808 173.088C32.1493 172.971 32.4373 172.811 32.672 172.608C32.9173 172.395 33.1093 172.144 33.248 171.856C33.3867 171.557 33.456 171.237 33.456 170.896C33.456 170.469 33.3707 170.117 33.2 169.84C33.04 169.552 32.816 169.328 32.528 169.168C32.2507 168.997 31.9253 168.88 31.552 168.816C31.1893 168.752 30.8107 168.72 30.416 168.72H29.216V173.136C29.3653 173.179 29.5413 173.211 29.744 173.232C29.9573 173.253 30.288 173.264 30.736 173.264ZM30.016 167.888C30.1973 167.888 30.4107 167.883 30.656 167.872C30.912 167.851 31.12 167.829 31.28 167.808C31.7707 167.637 32.1707 167.365 32.48 166.992C32.8 166.608 32.96 166.16 32.96 165.648C32.96 164.944 32.7467 164.416 32.32 164.064C31.904 163.712 31.344 163.536 30.64 163.536C30.3093 163.536 30.0267 163.541 29.792 163.552C29.5573 163.563 29.3653 163.579 29.216 163.6V167.888H30.016Z" fill="black"/>
<path d="M48.042 164.2C48.0327 164.573 48.014 164.951 47.986 165.334C47.9673 165.707 47.9347 166.085 47.888 166.468H47.524L46.95 164.928H43.898V168.638H46.18L46.726 167.602H47.076C47.132 168.526 47.132 169.469 47.076 170.43H46.726L46.18 169.366H43.898V173.272H47.118L47.804 171.592H48.154C48.2193 171.984 48.266 172.381 48.294 172.782C48.322 173.183 48.3267 173.589 48.308 174H41.406V173.594C41.7327 173.445 42.1153 173.333 42.554 173.258V164.956C42.3673 164.919 42.176 164.872 41.98 164.816C41.784 164.751 41.5927 164.681 41.406 164.606V164.2H48.042ZM56.5264 173.258C56.7411 173.305 56.9464 173.356 57.1424 173.412C57.3384 173.459 57.5298 173.519 57.7164 173.594V174H54.0344V173.594C54.2398 173.501 54.4358 173.431 54.6224 173.384C54.8091 173.337 54.9958 173.295 55.1824 173.258V164.956C54.9398 164.909 54.7251 164.858 54.5384 164.802C54.3518 164.737 54.1838 164.671 54.0344 164.606V164.2H55.2664C55.6398 164.2 56.0458 164.181 56.4844 164.144C56.9324 164.107 57.3664 164.088 57.7864 164.088C58.2438 164.088 58.6684 164.139 59.0604 164.242C59.4618 164.345 59.8071 164.508 60.0964 164.732C60.3858 164.956 60.6098 165.241 60.7684 165.586C60.9364 165.931 61.0204 166.347 61.0204 166.832C61.0204 167.513 60.8384 168.078 60.4744 168.526C60.1198 168.974 59.6344 169.296 59.0184 169.492C59.4198 170.127 59.8398 170.757 60.2784 171.382C60.7171 172.007 61.1744 172.628 61.6504 173.244L62.4064 173.65V174H60.7124L60.1804 173.608C59.9191 173.281 59.6811 172.964 59.4664 172.656C59.2518 172.339 59.0511 172.021 58.8644 171.704C58.6778 171.377 58.5004 171.051 58.3324 170.724C58.1738 170.388 58.0104 170.033 57.8424 169.66H56.5264V173.258ZM57.4784 164.816C57.2544 164.816 57.0678 164.821 56.9184 164.83C56.7784 164.839 56.6478 164.858 56.5264 164.886V169.072H57.5344C58.1784 169.072 58.6871 168.867 59.0604 168.456C59.4431 168.045 59.6344 167.504 59.6344 166.832C59.6344 166.141 59.4338 165.633 59.0324 165.306C58.6311 164.979 58.1131 164.816 57.4784 164.816ZM72.3705 164.2H75.4645V164.606C75.2778 164.69 75.0958 164.76 74.9185 164.816C74.7412 164.872 74.5685 164.919 74.4005 164.956L71.5865 168.68C71.8198 168.988 72.0858 169.333 72.3845 169.716C72.6925 170.099 73.0098 170.495 73.3365 170.906C73.6725 171.307 74.0132 171.718 74.3585 172.138C74.7132 172.549 75.0585 172.941 75.3945 173.314L76.0665 173.65V174H74.3165L73.8405 173.664C73.2898 173.02 72.7392 172.325 72.1885 171.578C71.6472 170.831 71.1198 170.075 70.6065 169.31H69.9205V173.258C70.3498 173.333 70.6998 173.445 70.9705 173.594V174H67.4285V173.594C67.8018 173.445 68.1845 173.333 68.5765 173.258V164.956C68.1565 164.9 67.7738 164.783 67.4285 164.606V164.2H70.9705V164.606C70.8212 164.671 70.6578 164.737 70.4805 164.802C70.3032 164.858 70.1165 164.909 69.9205 164.956V168.834L70.7605 168.638L73.3785 164.956C73.1918 164.909 73.0145 164.858 72.8465 164.802C72.6785 164.746 72.5198 164.681 72.3705 164.606V164.2ZM87.5953 164.2C87.5859 164.573 87.5673 164.951 87.5393 165.334C87.5206 165.707 87.4879 166.085 87.4413 166.468H87.0773L86.5033 164.928H83.4513V168.638H85.7333L86.2793 167.602H86.6293C86.6853 168.526 86.6853 169.469 86.6293 170.43H86.2793L85.7333 169.366H83.4513V173.272H86.6713L87.3573 171.592H87.7073C87.7726 171.984 87.8193 172.381 87.8473 172.782C87.8753 173.183 87.8799 173.589 87.8613 174H80.9593V173.594C81.2859 173.445 81.6686 173.333 82.1073 173.258V164.956C81.9206 164.919 81.7293 164.872 81.5333 164.816C81.3373 164.751 81.1459 164.681 80.9593 164.606V164.2H87.5953ZM93.5877 164.2H97.4237V164.606C97.1997 164.69 96.9757 164.765 96.7517 164.83C96.5277 164.886 96.3037 164.928 96.0797 164.956V173.272H99.2997L100.126 171.018H100.49C100.518 171.214 100.541 171.443 100.56 171.704C100.588 171.956 100.606 172.222 100.616 172.502C100.634 172.773 100.644 173.039 100.644 173.3C100.644 173.561 100.639 173.795 100.63 174H93.5877V173.594C93.8117 173.491 94.0171 173.417 94.2037 173.37C94.3904 173.323 94.5677 173.286 94.7357 173.258V164.956C94.5211 164.919 94.3157 164.872 94.1197 164.816C93.9237 164.751 93.7464 164.681 93.5877 164.606V164.2ZM112.387 164.2C112.378 164.573 112.359 164.951 112.331 165.334C112.313 165.707 112.28 166.085 112.233 166.468H111.869L111.295 164.928H108.243V168.638H110.525L111.071 167.602H111.421C111.477 168.526 111.477 169.469 111.421 170.43H111.071L110.525 169.366H108.243V173.272H111.463L112.149 171.592H112.499C112.565 171.984 112.611 172.381 112.639 172.782C112.667 173.183 112.672 173.589 112.653 174H105.751V173.594C106.078 173.445 106.461 173.333 106.899 173.258V164.956C106.713 164.919 106.521 164.872 106.325 164.816C106.129 164.751 105.938 164.681 105.751 164.606V164.2H112.387ZM123.91 164.2H126.99V164.606C126.635 164.783 126.28 164.9 125.926 164.956L123.28 169.828V173.258C123.644 173.305 123.998 173.417 124.344 173.594V174H120.788V173.594C121.124 173.426 121.506 173.314 121.936 173.258V169.842L119.108 164.956C118.893 164.919 118.692 164.872 118.506 164.816C118.328 164.751 118.151 164.681 117.974 164.606V164.2H121.684V164.606C121.544 164.662 121.385 164.723 121.208 164.788C121.03 164.844 120.83 164.9 120.606 164.956L122.902 169.072L125.058 164.956C124.843 164.909 124.638 164.858 124.442 164.802C124.255 164.737 124.078 164.671 123.91 164.606V164.2Z" fill="black"/>
<path d="M297.744 173.232C297.541 173.349 297.301 173.467 297.024 173.584C296.757 173.691 296.469 173.792 296.16 173.888C295.861 173.973 295.557 174.043 295.248 174.096C294.949 174.16 294.667 174.192 294.4 174.192C293.547 174.192 292.779 174.08 292.096 173.856C291.413 173.621 290.832 173.269 290.352 172.8C289.872 172.32 289.499 171.717 289.232 170.992C288.976 170.267 288.848 169.403 288.848 168.4C288.848 167.355 288.997 166.464 289.296 165.728C289.605 164.992 290.011 164.395 290.512 163.936C291.024 163.467 291.6 163.131 292.24 162.928C292.891 162.715 293.552 162.608 294.224 162.608C294.928 162.608 295.52 162.656 296 162.752C296.491 162.837 296.917 162.971 297.28 163.152C297.28 163.312 297.275 163.509 297.264 163.744C297.253 163.979 297.237 164.224 297.216 164.48C297.195 164.736 297.168 164.992 297.136 165.248C297.104 165.493 297.072 165.712 297.04 165.904H296.624L295.792 163.6C295.675 163.536 295.477 163.493 295.2 163.472C294.923 163.451 294.651 163.44 294.384 163.44C293.851 163.44 293.344 163.541 292.864 163.744C292.384 163.936 291.963 164.24 291.6 164.656C291.248 165.061 290.965 165.579 290.752 166.208C290.539 166.827 290.432 167.557 290.432 168.4C290.432 169.157 290.533 169.84 290.736 170.448C290.949 171.056 291.237 171.579 291.6 172.016C291.973 172.443 292.405 172.773 292.896 173.008C293.397 173.243 293.936 173.36 294.512 173.36C294.725 173.36 294.933 173.339 295.136 173.296C295.339 173.253 295.525 173.205 295.696 173.152C295.867 173.088 296.005 173.024 296.112 172.96C296.229 172.896 296.309 172.843 296.352 172.8V169.568C296.075 169.547 295.808 169.499 295.552 169.424C295.307 169.349 295.061 169.269 294.816 169.184V168.72H298.736V169.184C298.629 169.259 298.501 169.328 298.352 169.392C298.203 169.456 298 169.515 297.744 169.568V173.232Z" fill="black"/>
<path d="M307.898 173.258C308.113 173.305 308.318 173.356 308.514 173.412C308.71 173.459 308.901 173.519 309.088 173.594V174H305.406V173.594C305.611 173.501 305.807 173.431 305.994 173.384C306.181 173.337 306.367 173.295 306.554 173.258V164.956C306.311 164.909 306.097 164.858 305.91 164.802C305.723 164.737 305.555 164.671 305.406 164.606V164.2H306.638C307.011 164.2 307.417 164.181 307.856 164.144C308.304 164.107 308.738 164.088 309.158 164.088C309.615 164.088 310.04 164.139 310.432 164.242C310.833 164.345 311.179 164.508 311.468 164.732C311.757 164.956 311.981 165.241 312.14 165.586C312.308 165.931 312.392 166.347 312.392 166.832C312.392 167.513 312.21 168.078 311.846 168.526C311.491 168.974 311.006 169.296 310.39 169.492C310.791 170.127 311.211 170.757 311.65 171.382C312.089 172.007 312.546 172.628 313.022 173.244L313.778 173.65V174H312.084L311.552 173.608C311.291 173.281 311.053 172.964 310.838 172.656C310.623 172.339 310.423 172.021 310.236 171.704C310.049 171.377 309.872 171.051 309.704 170.724C309.545 170.388 309.382 170.033 309.214 169.66H307.898V173.258ZM308.85 164.816C308.626 164.816 308.439 164.821 308.29 164.83C308.15 164.839 308.019 164.858 307.898 164.886V169.072H308.906C309.55 169.072 310.059 168.867 310.432 168.456C310.815 168.045 311.006 167.504 311.006 166.832C311.006 166.141 310.805 165.633 310.404 165.306C310.003 164.979 309.485 164.816 308.85 164.816ZM318.699 169.1C318.699 168.372 318.797 167.7 318.993 167.084C319.198 166.459 319.487 165.922 319.861 165.474C320.243 165.017 320.71 164.662 321.261 164.41C321.811 164.158 322.437 164.032 323.137 164.032C323.837 164.032 324.462 164.158 325.013 164.41C325.563 164.662 326.025 165.017 326.399 165.474C326.781 165.922 327.071 166.459 327.267 167.084C327.472 167.7 327.575 168.372 327.575 169.1C327.575 169.828 327.472 170.505 327.267 171.13C327.071 171.746 326.781 172.283 326.399 172.74C326.025 173.188 325.563 173.538 325.013 173.79C324.462 174.042 323.837 174.168 323.137 174.168C322.437 174.168 321.811 174.042 321.261 173.79C320.71 173.538 320.243 173.188 319.861 172.74C319.487 172.283 319.198 171.746 318.993 171.13C318.797 170.505 318.699 169.828 318.699 169.1ZM320.197 169.1C320.197 169.697 320.257 170.262 320.379 170.794C320.509 171.317 320.701 171.774 320.953 172.166C321.205 172.558 321.522 172.871 321.905 173.104C322.287 173.328 322.74 173.44 323.263 173.44C323.739 173.44 324.154 173.328 324.509 173.104C324.863 172.871 325.153 172.558 325.377 172.166C325.61 171.774 325.783 171.317 325.895 170.794C326.016 170.262 326.077 169.697 326.077 169.1C326.077 168.503 326.016 167.943 325.895 167.42C325.773 166.888 325.587 166.426 325.335 166.034C325.083 165.642 324.765 165.334 324.383 165.11C324 164.877 323.547 164.76 323.025 164.76C322.511 164.76 322.073 164.877 321.709 165.11C321.354 165.334 321.065 165.642 320.841 166.034C320.617 166.426 320.453 166.888 320.351 167.42C320.248 167.943 320.197 168.503 320.197 169.1ZM332.94 164.2H336.496V164.606C336.319 164.681 336.141 164.746 335.964 164.802C335.787 164.858 335.609 164.909 335.432 164.956V170.682C335.432 171.177 335.483 171.592 335.586 171.928C335.698 172.255 335.857 172.521 336.062 172.726C336.267 172.922 336.519 173.067 336.818 173.16C337.126 173.244 337.471 173.286 337.854 173.286C338.591 173.286 339.165 173.085 339.576 172.684C339.987 172.273 340.192 171.601 340.192 170.668V165.082C339.977 165.007 339.777 164.933 339.59 164.858C339.403 164.774 339.235 164.69 339.086 164.606V164.2H342.068V164.606C341.891 164.709 341.709 164.802 341.522 164.886C341.345 164.97 341.163 165.035 340.976 165.082V170.696C340.976 171.293 340.897 171.807 340.738 172.236C340.579 172.665 340.355 173.02 340.066 173.3C339.786 173.58 339.441 173.79 339.03 173.93C338.629 174.061 338.181 174.126 337.686 174.126C336.519 174.126 335.628 173.865 335.012 173.342C334.396 172.81 334.088 171.998 334.088 170.906V164.956C333.705 164.9 333.323 164.783 332.94 164.606V164.2ZM349.584 173.258C349.836 173.286 350.074 173.333 350.298 173.398C350.522 173.454 350.732 173.519 350.928 173.594V174H347.092V173.594C347.279 173.501 347.47 173.431 347.666 173.384C347.862 173.337 348.053 173.295 348.24 173.258V164.956C348.025 164.919 347.825 164.872 347.638 164.816C347.451 164.751 347.269 164.681 347.092 164.606V164.2H348.352C348.725 164.2 349.131 164.181 349.57 164.144C350.009 164.107 350.429 164.088 350.83 164.088C351.287 164.088 351.735 164.139 352.174 164.242C352.613 164.335 353 164.499 353.336 164.732C353.681 164.965 353.957 165.278 354.162 165.67C354.377 166.053 354.484 166.533 354.484 167.112C354.484 167.663 354.377 168.134 354.162 168.526C353.947 168.918 353.658 169.24 353.294 169.492C352.939 169.744 352.533 169.931 352.076 170.052C351.619 170.164 351.147 170.22 350.662 170.22C350.615 170.22 350.541 170.22 350.438 170.22C350.345 170.22 350.242 170.22 350.13 170.22C350.018 170.211 349.911 170.201 349.808 170.192C349.705 170.183 349.631 170.173 349.584 170.164V173.258ZM350.536 164.816C350.312 164.816 350.13 164.821 349.99 164.83C349.85 164.839 349.715 164.858 349.584 164.886V169.422C349.631 169.441 349.696 169.455 349.78 169.464C349.873 169.464 349.967 169.469 350.06 169.478C350.163 169.487 350.261 169.492 350.354 169.492C350.447 169.492 350.522 169.492 350.578 169.492C350.905 169.492 351.213 169.45 351.502 169.366C351.791 169.273 352.043 169.128 352.258 168.932C352.482 168.736 352.659 168.489 352.79 168.19C352.921 167.891 352.986 167.532 352.986 167.112C352.986 166.347 352.767 165.773 352.328 165.39C351.899 165.007 351.301 164.816 350.536 164.816Z" fill="black"/>
<path d="M146.864 174H142.768V173.536C143.184 173.344 143.611 173.216 144.048 173.152V163.664C143.835 163.621 143.621 163.568 143.408 163.504C143.195 163.429 142.981 163.349 142.768 163.264V162.8H146.864V163.264C146.672 163.349 146.464 163.429 146.24 163.504C146.016 163.568 145.797 163.621 145.584 163.664V173.152C145.808 173.195 146.032 173.248 146.256 173.312C146.48 173.376 146.683 173.451 146.864 173.536V174Z" fill="black"/>
<path d="M159.818 164.2H162.842V164.606C162.45 164.867 162.067 165.054 161.694 165.166V174.168H160.896L155.814 166.454L155.268 165.362H155.226L155.352 166.454V173.104C155.735 173.207 156.094 173.37 156.43 173.594V174H153.406V173.594C153.574 173.491 153.751 173.403 153.938 173.328C154.134 173.244 154.339 173.169 154.554 173.104V165.082C154.367 165.007 154.181 164.928 153.994 164.844C153.817 164.76 153.649 164.676 153.49 164.592V164.2H155.856L160.266 170.85L160.91 172.054H160.966L160.896 170.85V165.166C160.7 165.082 160.509 164.993 160.322 164.9C160.145 164.807 159.977 164.709 159.818 164.606V164.2ZM175.364 164.956C175.14 164.909 174.93 164.858 174.734 164.802C174.538 164.737 174.347 164.671 174.16 164.606V164.2H177.31V164.606C177.039 164.755 176.703 164.872 176.302 164.956L173.138 174L172.368 174.168L168.798 164.956C168.611 164.909 168.429 164.858 168.252 164.802C168.075 164.737 167.902 164.671 167.734 164.606V164.2H171.444V164.606C171.285 164.671 171.108 164.737 170.912 164.802C170.716 164.858 170.511 164.909 170.296 164.956L172.69 171.354L172.984 172.474H173.012L173.292 171.326L175.364 164.956ZM188.826 164.2C188.817 164.573 188.798 164.951 188.77 165.334C188.752 165.707 188.719 166.085 188.672 166.468H188.308L187.734 164.928H184.682V168.638H186.964L187.51 167.602H187.86C187.916 168.526 187.916 169.469 187.86 170.43H187.51L186.964 169.366H184.682V173.272H187.902L188.588 171.592H188.938C189.004 171.984 189.05 172.381 189.078 172.782C189.106 173.183 189.111 173.589 189.092 174H182.19V173.594C182.517 173.445 182.9 173.333 183.338 173.258V164.956C183.152 164.919 182.96 164.872 182.764 164.816C182.568 164.751 182.377 164.681 182.19 164.606V164.2H188.826ZM196.513 173.034C196.625 173.146 196.769 173.244 196.947 173.328C197.124 173.403 197.39 173.44 197.745 173.44C198.043 173.44 198.323 173.403 198.585 173.328C198.846 173.244 199.07 173.127 199.257 172.978C199.453 172.819 199.607 172.633 199.719 172.418C199.831 172.194 199.887 171.942 199.887 171.662C199.887 171.289 199.77 170.976 199.537 170.724C199.313 170.472 199.028 170.248 198.683 170.052C198.347 169.856 197.978 169.665 197.577 169.478C197.175 169.291 196.802 169.072 196.457 168.82C196.121 168.559 195.836 168.251 195.603 167.896C195.379 167.532 195.267 167.079 195.267 166.538C195.267 166.146 195.337 165.796 195.477 165.488C195.617 165.18 195.813 164.919 196.065 164.704C196.326 164.489 196.634 164.326 196.989 164.214C197.343 164.093 197.74 164.032 198.179 164.032C198.748 164.032 199.266 164.079 199.733 164.172C200.209 164.256 200.582 164.363 200.853 164.494C200.853 164.653 200.839 164.839 200.811 165.054C200.792 165.259 200.764 165.474 200.727 165.698C200.699 165.922 200.666 166.141 200.629 166.356C200.591 166.561 200.554 166.743 200.517 166.902H200.153L199.593 164.984C199.425 164.909 199.21 164.853 198.949 164.816C198.697 164.779 198.426 164.76 198.137 164.76C197.661 164.76 197.278 164.895 196.989 165.166C196.699 165.427 196.555 165.796 196.555 166.272C196.555 166.655 196.667 166.977 196.891 167.238C197.124 167.499 197.413 167.733 197.759 167.938C198.104 168.143 198.473 168.344 198.865 168.54C199.266 168.727 199.639 168.946 199.985 169.198C200.33 169.45 200.615 169.749 200.839 170.094C201.072 170.439 201.189 170.869 201.189 171.382C201.189 171.802 201.109 172.185 200.951 172.53C200.801 172.875 200.582 173.169 200.293 173.412C200.003 173.655 199.649 173.841 199.229 173.972C198.809 174.103 198.333 174.168 197.801 174.168C197.213 174.168 196.685 174.098 196.219 173.958C195.752 173.818 195.421 173.669 195.225 173.51C195.234 173.351 195.248 173.16 195.267 172.936C195.295 172.712 195.323 172.483 195.351 172.25C195.388 172.007 195.425 171.774 195.463 171.55C195.5 171.326 195.537 171.135 195.575 170.976H195.939L196.513 173.034ZM212.699 174H208.765V173.594C208.97 173.519 209.175 173.454 209.381 173.398C209.595 173.342 209.824 173.295 210.067 173.258V164.928H207.925L207.183 166.93H206.833C206.805 166.743 206.781 166.533 206.763 166.3C206.744 166.057 206.725 165.815 206.707 165.572C206.697 165.32 206.688 165.077 206.679 164.844C206.669 164.601 206.665 164.387 206.665 164.2H214.799C214.799 164.387 214.794 164.597 214.785 164.83C214.775 165.063 214.761 165.306 214.743 165.558C214.733 165.801 214.719 166.043 214.701 166.286C214.691 166.519 214.673 166.734 214.645 166.93H214.281L213.553 164.928H211.411V173.258C211.653 173.305 211.877 173.351 212.083 173.398C212.297 173.445 212.503 173.51 212.699 173.594V174ZM231.264 174H227.792V173.594C227.979 173.519 228.166 173.459 228.352 173.412C228.539 173.356 228.73 173.305 228.926 173.258V166.958L228.982 165.32H228.87L228.408 166.818L225.538 174H225.174L222.444 166.818L221.94 165.18H221.814L221.828 166.958V173.258C222.006 173.295 222.183 173.342 222.36 173.398C222.538 173.454 222.715 173.519 222.892 173.594V174H219.966V173.594C220.144 173.519 220.326 173.454 220.512 173.398C220.708 173.333 220.904 173.281 221.1 173.244V164.956C220.904 164.919 220.708 164.872 220.512 164.816C220.326 164.751 220.139 164.681 219.952 164.606V164.2H222.822L225.258 170.598L225.734 172.04H225.748L226.224 170.57L228.744 164.2H231.278V164.606C231.11 164.681 230.938 164.751 230.76 164.816C230.583 164.872 230.401 164.919 230.214 164.956V173.272C230.41 173.309 230.592 173.356 230.76 173.412C230.938 173.459 231.106 173.519 231.264 173.594V174ZM243.209 164.2C243.2 164.573 243.181 164.951 243.153 165.334C243.134 165.707 243.102 166.085 243.055 166.468H242.691L242.117 164.928H239.065V168.638H241.347L241.893 167.602H242.243C242.299 168.526 242.299 169.469 242.243 170.43H241.893L241.347 169.366H239.065V173.272H242.285L242.971 171.592H243.321C243.386 171.984 243.433 172.381 243.461 172.782C243.489 173.183 243.494 173.589 243.475 174H236.573V173.594C236.9 173.445 237.282 173.333 237.721 173.258V164.956C237.534 164.919 237.343 164.872 237.147 164.816C236.951 164.751 236.76 164.681 236.573 164.606V164.2H243.209ZM255.614 164.2H258.638V164.606C258.246 164.867 257.863 165.054 257.49 165.166V174.168H256.692L251.61 166.454L251.064 165.362H251.022L251.148 166.454V173.104C251.53 173.207 251.89 173.37 252.226 173.594V174H249.202V173.594C249.37 173.491 249.547 173.403 249.734 173.328C249.93 173.244 250.135 173.169 250.35 173.104V165.082C250.163 165.007 249.976 164.928 249.79 164.844C249.612 164.76 249.444 164.676 249.286 164.592V164.2H251.652L256.062 170.85L256.706 172.054H256.762L256.692 170.85V165.166C256.496 165.082 256.304 164.993 256.118 164.9C255.94 164.807 255.772 164.709 255.614 164.606V164.2ZM269.829 174H265.895V173.594C266.101 173.519 266.306 173.454 266.511 173.398C266.726 173.342 266.955 173.295 267.197 173.258V164.928H265.055L264.313 166.93H263.963C263.935 166.743 263.912 166.533 263.893 166.3C263.875 166.057 263.856 165.815 263.837 165.572C263.828 165.32 263.819 165.077 263.809 164.844C263.8 164.601 263.795 164.387 263.795 164.2H271.929C271.929 164.387 271.925 164.597 271.915 164.83C271.906 165.063 271.892 165.306 271.873 165.558C271.864 165.801 271.85 166.043 271.831 166.286C271.822 166.519 271.803 166.734 271.775 166.93H271.411L270.683 164.928H268.541V173.258C268.784 173.305 269.008 173.351 269.213 173.398C269.428 173.445 269.633 173.51 269.829 173.594V174Z" fill="black"/>
<path d="M136.176 146V141.824C140.016 140 143.952 138.848 147.984 138.368V52.976C146.064 52.592 144.096 52.112 142.08 51.536C140.064 50.864 138.096 50.144 136.176 49.376V45.2H151.44C153.264 45.2 154.992 45.152 156.624 45.056C158.352 44.96 160.128 44.864 161.952 44.768C163.776 44.672 165.744 44.576 167.856 44.48C169.968 44.384 172.368 44.336 175.056 44.336C178.896 44.336 182.784 44.672 186.72 45.344C190.752 45.92 194.352 47.072 197.52 48.8C200.784 50.528 203.424 52.976 205.44 56.144C207.456 59.216 208.464 63.248 208.464 68.24C208.464 70.736 208.08 73.232 207.312 75.728C206.544 78.224 205.344 80.576 203.712 82.784C202.176 84.896 200.208 86.768 197.808 88.4C195.408 90.032 192.576 91.232 189.312 92V92.576C192.192 93.056 195.024 93.872 197.808 95.024C200.688 96.176 203.232 97.76 205.44 99.776C207.648 101.696 209.424 104.096 210.768 106.976C212.208 109.856 212.928 113.312 212.928 117.344C212.928 122.528 211.776 126.992 209.472 130.736C207.168 134.48 204.144 137.552 200.4 139.952C196.752 142.352 192.576 144.128 187.872 145.28C183.168 146.336 178.416 146.864 173.616 146.864C170.256 146.864 166.464 146.72 162.24 146.432C158.016 146.144 153.936 146 150 146H136.176ZM174.624 139.376C178.08 139.376 181.296 138.848 184.272 137.792C187.344 136.736 189.936 135.296 192.048 133.472C194.256 131.552 195.984 129.296 197.232 126.704C198.48 124.016 199.104 121.136 199.104 118.064C199.104 114.224 198.336 111.056 196.8 108.56C195.36 105.968 193.344 103.952 190.752 102.512C188.256 100.976 185.328 99.92 181.968 99.344C178.704 98.768 175.296 98.48 171.744 98.48H160.944V138.224C162.288 138.608 163.872 138.896 165.696 139.088C167.616 139.28 170.592 139.376 174.624 139.376ZM168.144 90.992C169.776 90.992 171.696 90.944 173.904 90.848C176.208 90.656 178.08 90.464 179.52 90.272C183.936 88.736 187.536 86.288 190.32 82.928C193.2 79.472 194.64 75.44 194.64 70.832C194.64 64.496 192.72 59.744 188.88 56.576C185.136 53.408 180.096 51.824 173.76 51.824C170.784 51.824 168.24 51.872 166.128 51.968C164.016 52.064 162.288 52.208 160.944 52.4V90.992H168.144ZM264.37 146H227.506V141.824C231.25 140.096 235.09 138.944 239.026 138.368V52.976C237.106 52.592 235.186 52.112 233.266 51.536C231.346 50.864 229.426 50.144 227.506 49.376V45.2H264.37V49.376C262.642 50.144 260.77 50.864 258.754 51.536C256.738 52.112 254.77 52.592 252.85 52.976V138.368C254.866 138.752 256.882 139.232 258.898 139.808C260.914 140.384 262.738 141.056 264.37 141.824V146ZM358.915 139.088C357.091 140.144 354.931 141.2 352.435 142.256C350.035 143.216 347.443 144.128 344.659 144.992C341.971 145.76 339.235 146.384 336.451 146.864C333.763 147.44 331.219 147.728 328.819 147.728C321.139 147.728 314.227 146.72 308.083 144.704C301.939 142.592 296.707 139.424 292.387 135.2C288.067 130.88 284.707 125.456 282.307 118.928C280.003 112.4 278.851 104.624 278.851 95.6C278.851 86.192 280.195 78.176 282.883 71.552C285.667 64.928 289.315 59.552 293.827 55.424C298.435 51.2 303.619 48.176 309.379 46.352C315.235 44.432 321.187 43.472 327.235 43.472C333.571 43.472 338.899 43.904 343.219 44.768C347.635 45.536 351.475 46.736 354.739 48.368C354.739 49.808 354.691 51.584 354.595 53.696C354.499 55.808 354.355 58.016 354.163 60.32C353.971 62.624 353.731 64.928 353.443 67.232C353.155 69.44 352.867 71.408 352.579 73.136H348.835L341.347 52.4C340.291 51.824 338.515 51.44 336.019 51.248C333.523 51.056 331.075 50.96 328.675 50.96C323.875 50.96 319.315 51.872 314.995 53.696C310.675 55.424 306.883 58.16 303.619 61.904C300.451 65.552 297.907 70.208 295.987 75.872C294.067 81.44 293.107 88.016 293.107 95.6C293.107 102.416 294.019 108.56 295.843 114.032C297.763 119.504 300.355 124.208 303.619 128.144C306.979 131.984 310.867 134.96 315.283 137.072C319.795 139.184 324.643 140.24 329.827 140.24C331.747 140.24 333.619 140.048 335.443 139.664C337.267 139.28 338.947 138.848 340.483 138.368C342.019 137.792 343.267 137.216 344.227 136.64C345.283 136.064 346.003 135.584 346.387 135.2V106.112C343.891 105.92 341.491 105.488 339.187 104.816C336.979 104.144 334.771 103.424 332.563 102.656V98.48H367.843V102.656C366.883 103.328 365.731 103.952 364.387 104.528C363.043 105.104 361.219 105.632 358.915 106.112V139.088Z" fill="black"/>
<mask id="mask0" mask-type="alpha" maskUnits="userSpaceOnUse" x="0" y="32" width="124" height="124">
<circle cx="62" cy="94" r="62" fill="black"/>
</mask>
<g mask="url(#mask0)">
<circle cx="62" cy="95" r="62" fill="black"/>
<circle cx="62" cy="94" r="58.5" fill="black" stroke="white"/>
<path fill-rule="evenodd" clip-rule="evenodd" d="M117 64L102.146 83.2669L99.6677 80.7887L84.9334 100.604L79.7956 92.8971L61.7956 111.897L58.9282 107.596L49.8079 119.756L41.6505 104.971L38.1548 108.467L35.9819 104.556L30.0394 114.955L21.5699 101.005L15.987 111.24L13.4587 109.344L3.34528 116.239L1.65527 113.761L13.5418 105.656L15.0135 106.76L21.4307 94.995L29.9611 109.045L36.0187 98.4444L38.8458 103.533L42.3501 100.029L50.1926 114.243L59.0723 102.404L62.205 107.103L80.205 88.1028L85.0672 95.3961L99.3329 76.2112L101.855 78.733L115 62L117 64Z" fill="white"/>
<rect x="40" y="128.398" width="44" height="29.6017" fill="white"/>
<path d="M79 75.8195H79.3411L79.4655 75.502L83 66.4825L86.5 75.414V82.9855H37.5V75.414L41 66.4825L44.5345 75.502L44.6589 75.8195H45H79Z" fill="white" stroke="black"/>
<path d="M62 35L44 72.7676L45 75.3195H79L80 72.7676L62 35Z" fill="white"/>
<path fill-rule="evenodd" clip-rule="evenodd" d="M84 83.4856H40V124.315H84V83.4856ZM53.5 90.4746V118H47.5V90.4746C47.5 90.4746 48.625 89 50.5 89C52.375 89 53.5 90.4746 53.5 90.4746ZM65 118V90.4746C65 90.4746 63.875 89 62 89C60.125 89 59 90.4746 59 90.4746V118H65ZM76.5 90.4746V118H70.5V90.4746C70.5 90.4746 71.625 89 73.5 89C75.375 89 76.5 90.4746 76.5 90.4746Z" fill="white"/>
<rect x="60.5" y="147.5" width="3" height="9" fill="black" stroke="black"/>
<rect x="37.5" y="123.795" width="49" height="5.12448" fill="white" stroke="black"/>
</g>
</svg>
